<?xml version="1.0" standalone="no"?>
<!DOCTYPE svg PUBLIC "-//W3C//DTD SVG 20010904//EN"
 "http://www.w3.org/TR/2001/REC-SVG-20010904/DTD/svg10.dtd">
<svg version="1.0" xmlns="http://www.w3.org/2000/svg"
 width="150.000000pt" height="150.000000pt" viewBox="0 0 150.000000 150.000000"
 preserveAspectRatio="xMidYMid meet">
<metadata>
Created by potrace 1.14, written by Peter Selinger 2001-2017
</metadata>
<g transform="translate(0.000000,150.000000) scale(0.100000,-0.100000)"
fill="#000000" stroke="none">
<path d="M835 1259 c-49 -56 -95 -106 -100 -113 -61 -68 -285 -398 -285 -420
0 -16 34 -31 50 -21 6 3 29 34 52 68 64 95 195 268 307 407 55 69 101 132 101
141 0 15 -18 39 -29 39 -4 0 -46 -46 -96 -101z"/>
<path d="M490 1320 c0 -5 -10 -10 -23 -10 -13 0 -33 -10 -45 -23 -57 -60 -115
-258 -91 -310 15 -34 69 -62 102 -53 45 11 124 120 152 209 33 103 32 131 -4
168 -29 29 -91 42 -91 19z m57 -94 c-9 -60 -52 -149 -97 -197 -20 -21 -39 -39
-43 -39 -12 0 -8 33 14 108 17 55 26 72 40 72 12 0 27 17 44 50 32 63 50 66
42 6z"/>
<path d="M892 1138 c-7 -7 -12 -16 -12 -21 0 -4 -11 -23 -24 -40 -14 -18 -28
-45 -32 -62 -3 -16 -15 -44 -25 -60 -23 -40 -79 -212 -79 -246 0 -25 26 -59
46 -59 5 0 20 28 33 62 13 34 47 100 75 147 l51 85 3 -54 c4 -60 30 -100 66
-100 11 0 42 23 69 51 27 28 50 49 52 47 1 -2 -2 -27 -8 -56 -11 -51 -10 -54
13 -73 14 -10 30 -18 35 -18 6 0 30 60 54 134 43 131 44 135 26 155 -10 11
-25 20 -33 20 -8 0 -61 -48 -118 -107 l-104 -108 0 36 c0 19 7 59 16 88 18 63
15 110 -9 125 -14 9 -22 6 -42 -19 -19 -23 -24 -26 -25 -12 0 9 6 26 12 37 11
17 9 23 -8 40 -15 16 -22 18 -32 8z"/>
<path d="M827 638 c-110 -147 -190 -343 -157 -383 20 -25 54 -17 100 22 l43
37 -7 -36 c-5 -30 -3 -39 13 -47 17 -10 24 -1 67 84 26 52 52 95 56 95 4 0 8
-15 8 -33 0 -59 40 -75 80 -32 31 33 41 32 33 -7 -5 -23 -2 -34 12 -45 25 -17
35 -17 35 3 0 9 12 49 26 90 44 124 12 139 -84 39 -35 -36 -66 -65 -69 -65 -5
0 -3 13 12 106 8 44 -7 66 -28 45 -18 -18 -25 -13 -19 15 4 21 1 25 -14 22
-21 -4 -104 -158 -104 -194 0 -17 -5 -20 -23 -17 -16 3 -34 -5 -56 -22 -17
-15 -34 -25 -37 -22 -10 9 68 178 123 264 42 67 51 89 42 99 -17 21 -25 17
-52 -18z"/>
<path d="M535 575 c-26 -30 -44 -58 -41 -63 3 -6 -1 -16 -10 -23 -8 -7 -27
-32 -41 -56 -18 -31 -31 -43 -48 -43 -33 0 -43 -21 -18 -37 20 -13 20 -14 -5
-83 -26 -74 -24 -100 6 -100 14 0 28 22 57 95 21 52 45 96 52 96 7 1 18 3 23
4 6 1 24 3 40 4 19 1 30 6 30 16 0 15 -13 19 -62 15 -34 -2 -32 8 26 100 45
71 65 62 25 -10 -20 -35 -21 -43 -9 -50 28 -18 37 -10 64 49 31 69 33 102 8
124 -30 27 -48 20 -97 -38z"/>
<path d="M684 555 c-3 -7 -6 -29 -7 -49 -1 -23 -8 -38 -18 -41 -25 -8 -73
-123 -73 -175 -1 -72 22 -56 53 36 15 44 34 90 43 103 9 13 14 29 11 37 -3 7
5 27 16 43 12 16 21 33 21 39 0 15 -41 22 -46 7z"/>
<path d="M1015 210 c-64 -14 -307 -48 -465 -65 -199 -22 -190 -20 -190 -56 l0
-30 93 6 c193 12 246 17 367 36 137 21 198 33 278 56 45 13 53 18 50 36 -3 19
-10 22 -48 24 -25 0 -63 -3 -85 -7z"/>
</g>
</svg>
